<?xml version="1.0" standalone="no"?>
<!DOCTYPE svg PUBLIC "-//W3C//DTD SVG 20010904//EN"
 "http://www.w3.org/TR/2001/REC-SVG-20010904/DTD/svg10.dtd">
<svg version="1.0" xmlns="http://www.w3.org/2000/svg"
 width="300.000000pt" height="300.000000pt" viewBox="0 0 300.000000 300.000000"
 preserveAspectRatio="xMidYMid meet">
<metadata>
Created by potrace 1.14, written by Peter Selinger 2001-2017
</metadata>
<g transform="translate(0.000000,300.000000) scale(0.100000,-0.100000)"
fill="#000000" stroke="none">
<path d="M1309 2835 c-348 -57 -661 -238 -863 -500 -82 -106 -116 -161 -169
-275 -171 -365 -166 -788 15 -1155 141 -286 380 -515 673 -643 199 -87 498
-137 606 -101 116 39 177 161 145 288 l-8 35 31 -26 c17 -15 44 -29 61 -33 38
-8 125 11 142 33 11 13 14 11 18 -18 7 -47 29 -57 76 -36 50 23 64 42 64 85
l1 36 25 -30 c14 -16 37 -43 50 -59 21 -24 29 -27 56 -22 18 3 36 13 41 21 11
20 20 19 63 -10 25 -17 50 -25 80 -25 47 0 129 31 137 52 3 7 6 4 6 -9 1 -12
8 -28 16 -37 15 -14 22 -14 63 1 9 3 23 7 30 9 43 8 44 11 41 102 -2 48 0 93
5 100 4 7 29 12 61 12 43 0 56 4 65 19 17 32 12 56 -18 84 -30 29 -86 36 -122
17 -15 -8 -24 -6 -40 10 -22 22 -69 27 -88 8 -7 -7 -12 -28 -12 -47 l-1 -36
-23 29 c-19 23 -34 30 -73 33 -103 10 -186 -37 -207 -120 l-12 -47 -26 27 -27
28 45 59 c24 33 44 70 44 82 0 27 -51 84 -75 84 -8 0 -36 -19 -60 -41 -38 -35
-45 -38 -45 -22 0 22 -22 43 -63 61 -60 26 -97 7 -97 -48 0 -20 -2 -19 -26 10
-15 17 -39 37 -54 45 -25 13 -31 12 -73 -15 -46 -29 -97 -92 -97 -120 0 -9 -4
-20 -9 -26 -5 -5 -11 -22 -13 -39 -2 -24 -6 -17 -20 39 -17 67 -17 69 3 97 22
31 71 71 104 84 11 5 126 12 255 16 215 6 242 9 315 32 312 102 525 394 525
723 0 362 -207 728 -536 947 -165 109 -323 175 -523 217 -127 27 -365 35 -482
15z m-74 -320 c52 -30 69 -50 96 -110 36 -81 17 -174 -48 -239 -140 -142 -378
-40 -377 160 1 169 183 273 329 189z m1158 -579 c114 -41 175 -151 147 -268
-22 -92 -121 -168 -217 -168 -144 0 -257 155 -212 291 40 119 169 185 282 145z
m-1095 -477 c21 -7 40 -26 57 -56 24 -43 59 -143 50 -143 -3 0 0 -12 5 -26 6
-14 13 -49 16 -77 4 -29 8 -55 11 -60 6 -10 -23 -38 -31 -30 -3 4 -6 1 -6 -5
0 -7 -7 -12 -15 -12 -8 0 -19 16 -25 40 -10 39 -12 40 -53 40 -51 0 -59 -6
-76 -47 -7 -18 -22 -35 -32 -38 -22 -7 -61 3 -55 14 3 4 14 65 26 136 11 72
25 144 30 160 5 17 14 49 20 73 12 46 23 50 78 31z m401 -34 c34 -34 49 -95
24 -95 -10 0 -13 -6 -9 -16 4 -10 -4 -19 -27 -29 -17 -8 -27 -15 -22 -15 6 -1
3 -4 -6 -8 -13 -6 -14 -12 -6 -32 5 -14 9 -34 8 -46 -1 -12 10 -35 24 -53 28
-32 39 -77 23 -87 -11 -7 -68 44 -68 61 0 19 -61 95 -76 95 -8 0 -14 8 -14 18
0 10 -5 23 -12 30 -9 9 -9 18 0 37 17 37 15 66 -3 59 -10 -4 -15 -20 -15 -44
0 -22 -5 -42 -11 -46 -7 -4 -10 4 -8 22 1 16 -1 59 -5 96 -5 36 -5 72 -1 78 5
8 34 11 91 8 78 -3 86 -5 113 -33z m300 29 c30 -6 32 -9 25 -38 -4 -17 -7 -36
-7 -43 0 -7 -20 -15 -44 -19 l-43 -6 0 -58 c0 -93 -12 -210 -21 -204 -5 3 -9
-1 -9 -8 -1 -16 -49 -53 -58 -44 -10 11 -20 115 -21 224 -1 93 -3 103 -18 100
-22 -4 -52 31 -55 64 -3 20 2 24 37 29 57 9 177 10 214 3z m-1200 -214 c144
-41 209 -225 122 -347 -14 -19 -26 -22 -79 -23 -76 0 -102 -12 -102 -46 0 -25
-2 -26 -37 -19 -93 17 -161 82 -183 174 -38 159 120 307 279 261z m731 -55 c6
4 10 -5 10 -19 0 -16 -5 -25 -12 -23 -7 1 -13 -4 -12 -10 1 -7 2 -25 3 -40 1
-22 3 -25 11 -13 8 12 10 12 10 1 0 -10 3 -11 13 -2 11 8 13 6 12 -12 -1 -12
-5 -21 -9 -19 -4 1 -14 -4 -23 -13 -9 -9 -19 -13 -23 -8 -4 4 -10 53 -14 108
-6 94 -5 98 9 72 9 -15 20 -25 25 -22z m40 -61 c0 -8 -5 -12 -10 -9 -6 4 -8
11 -5 16 9 14 15 11 15 -7z m-33 -284 c36 -22 78 -95 88 -156 4 -21 10 -43 14
-49 7 -12 10 -29 15 -80 2 -22 7 -48 11 -57 7 -18 -17 -52 -29 -41 -3 4 -6 1
-6 -5 0 -7 -7 -12 -15 -12 -8 0 -19 16 -25 39 -10 38 -12 39 -59 43 -27 1 -47
0 -44 -4 2 -5 0 -8 -4 -8 -5 0 -15 -16 -21 -34 -7 -19 -22 -38 -32 -41 -23 -7
-63 3 -56 14 3 4 12 52 20 107 19 121 55 275 69 292 14 17 37 15 74 -8z m-570
0 l85 0 -7 -32 c-4 -18 -8 -37 -9 -43 -2 -14 -25 -23 -58 -24 l-28 -1 -2 -87
c-1 -49 -2 -95 -4 -103 -1 -8 -2 -30 -3 -48 -1 -19 -5 -31 -11 -27 -5 3 -10 0
-10 -7 -1 -16 -49 -53 -58 -44 -10 11 -20 114 -21 219 -1 85 -3 97 -18 97 -22
1 -52 40 -56 72 -2 20 3 24 43 29 25 3 51 4 58 2 8 -1 52 -3 99 -3z m285 0
c20 -6 46 -22 58 -37 21 -27 28 -83 9 -83 -6 0 -9 -7 -5 -15 6 -16 -32 -48
-47 -38 -6 3 -7 1 -4 -4 4 -6 0 -14 -8 -17 -13 -5 -14 -9 -3 -28 6 -13 11 -31
10 -40 -3 -20 20 -69 41 -86 14 -12 12 -62 -2 -62 -12 0 -65 59 -67 74 -3 23
-55 86 -70 86 -8 0 -14 7 -14 15 0 8 -5 24 -12 35 -9 15 -9 24 1 43 15 29 12
60 -6 49 -7 -4 -13 -25 -15 -46 -3 -46 -19 -60 -17 -14 1 18 -2 59 -6 90 -11
82 -6 88 62 88 32 0 75 -5 95 -10z m627 -22 c17 -17 31 -37 31 -44 0 -7 -16
-21 -36 -30 -68 -33 -92 -112 -58 -192 l15 -37 19 23 c10 12 22 22 27 22 19 0
65 -50 61 -67 -4 -21 -57 -42 -112 -42 -31 -1 -45 6 -76 37 -31 31 -39 49 -50
106 -8 44 -9 70 -3 75 6 3 13 23 16 44 7 42 32 79 79 114 41 30 50 29 87 -9z
m195 -21 c3 -12 6 -35 6 -52 l0 -29 58 57 c32 31 63 57 70 57 7 0 17 -11 24
-25 6 -13 15 -22 19 -19 19 11 -14 -52 -51 -98 l-39 -49 46 -62 c26 -34 52
-67 59 -73 10 -8 7 -17 -12 -42 -14 -18 -29 -32 -33 -32 -4 0 -37 34 -72 75
-35 41 -67 75 -70 75 -6 0 -10 -42 -10 -113 0 -9 -4 -15 -10 -12 -5 4 -9 3 -9
-2 0 -4 -12 -14 -27 -20 -21 -10 -28 -10 -35 0 -13 20 -3 32 25 31 30 -1 34 8
12 26 -8 7 -15 23 -15 35 0 13 -6 25 -14 28 -21 8 -30 74 -12 92 16 17 13 61
-9 130 -8 25 -10 46 -4 57 8 15 13 16 53 2 30 -10 46 -22 50 -37z m-119 -143
c-4 -52 -9 -94 -10 -94 -2 0 -18 6 -36 14 -24 10 -39 11 -52 4 -25 -13 -30 -6
-31 48 -1 41 3 49 34 74 19 16 46 40 60 53 36 36 43 15 35 -99z m698 72 c19
-23 19 -23 55 -4 48 24 68 23 98 -7 20 -20 23 -28 14 -45 -8 -16 -21 -20 -59
-20 -72 0 -84 -18 -80 -122 3 -68 1 -83 -11 -84 -8 0 -28 -6 -44 -13 -17 -7
-33 -8 -38 -3 -10 10 -12 308 -2 323 9 15 47 0 67 -25z m-131 -39 c22 -26 26
-39 22 -67 -8 -54 -12 -60 -32 -60 -10 0 -40 -7 -66 -16 -37 -13 -53 -14 -72
-5 -18 8 -24 8 -24 -2 1 -30 19 -41 65 -39 34 1 44 -2 39 -11 -4 -6 9 3 28 21
l35 33 12 -27 c10 -22 9 -30 -6 -46 -28 -31 -83 -50 -125 -43 -21 4 -38 11
-38 16 0 5 -6 9 -14 9 -23 0 -53 46 -66 99 -10 44 -9 55 8 94 20 45 22 47 122
81 34 12 85 -5 112 -37z m-1392 -112 c16 10 11 -27 -4 -39 -11 -8 -13 -20 -7
-46 5 -19 9 -30 10 -23 1 6 9 11 19 10 14 -1 17 -7 14 -24 -2 -13 -7 -22 -9
-19 -3 3 -12 -2 -21 -10 -8 -8 -18 -12 -22 -7 -4 4 -10 53 -14 108 -6 94 -5
98 9 72 9 -15 20 -25 25 -22z m40 -61 c0 -8 -5 -12 -10 -9 -6 4 -8 11 -5 16 9
14 15 11 15 -7z m810 -15 c-14 -26 -18 -24 -12 6 2 14 8 22 13 19 5 -3 5 -14
-1 -25z"/>
<path d="M1288 1310 c-14 -38 -27 -94 -24 -98 2 -2 17 -2 34 0 l30 3 -18 55
c-10 31 -19 49 -22 40z"/>
<path d="M1308 1143 c7 -3 16 -2 19 1 4 3 -2 6 -13 5 -11 0 -14 -3 -6 -6z"/>
<path d="M1405 1090 c3 -5 8 -10 11 -10 2 0 4 5 4 10 0 6 -5 10 -11 10 -5 0
-7 -4 -4 -10z"/>
<path d="M1580 1345 c0 -29 17 -32 61 -10 38 20 29 35 -22 35 -35 0 -39 -3
-39 -25z"/>
<path d="M1502 648 c-6 -28 -11 -53 -9 -54 1 -1 16 1 33 4 l30 7 -14 48 c-7
26 -16 47 -20 47 -4 0 -13 -23 -20 -52z"/>
<path d="M1528 533 c7 -3 16 -2 19 1 4 3 -2 6 -13 5 -11 0 -14 -3 -6 -6z"/>
<path d="M1635 480 c4 -6 11 -8 16 -5 14 9 11 15 -7 15 -8 0 -12 -5 -9 -10z"/>
<path d="M1180 730 c0 -28 2 -29 26 -20 14 6 35 15 47 22 21 11 21 11 2 19
-11 4 -32 8 -47 8 -24 1 -28 -3 -28 -29z"/>
<path d="M1720 560 c0 -21 37 -80 52 -82 57 -7 68 -5 56 9 -6 8 -19 12 -28 10
-16 -4 -31 10 -65 58 -11 15 -14 16 -15 5z"/>
<path d="M2002 625 c0 -16 2 -22 5 -12 2 9 2 23 0 30 -3 6 -5 -1 -5 -18z"/>
<path d="M2384 615 c-18 -13 -17 -14 18 -15 43 0 70 9 62 21 -8 14 -58 11 -80
-6z"/>
<path d="M2300 522 c0 -5 7 -15 15 -22 8 -7 15 -8 15 -2 0 5 -7 15 -15 22 -8
7 -15 8 -15 2z"/>
<path d="M2490 495 c0 -16 16 -20 24 -6 3 5 -1 11 -9 15 -9 3 -15 0 -15 -9z"/>
</g>
</svg>
